<?xml version="1.0" encoding="UTF-8"?>
<svg id="_图层_2" data-name="图层 2" xmlns="http://www.w3.org/2000/svg" viewBox="0 0 850.46 863.5">
  <g id="_图层_1-2" data-name="图层 1">
    <path d="m60.96,336.54c-7.77-99.57-12.76-199.33-21.29-298.85-.86-10.5-.5-21.24-6.99-30.68C25-3.81-5.38-3.03.83,15.9c25.56,173.56,48.62,348.03,56.44,523.46,5.79,85.85,11.89,171.72,20.03,257.37,1.74,17.46,6.33,33.12,12.89,51.47,1.54,4.3,5.56,17.91,15.97,14.85,3.32-.97,6.41-2.6,5.87-7.38-1.29-21.13-4.68-41.95-8.11-62.8-10.73-100.85-21.75-165.78-28.2-287.99.86-46.21,2.63-63.35,22.21-101.43,21.25-30.73,57.84-62.91,96.88-83.87,50.61-29.34,102.22-56.54,158.56-73.31,29.07-9.2,49.92-16.86,80.16-20,14.46-.78,32.37-10.41,31.29-15.18-4.22-11.97-27.24-18.3-39.01-19.9-14.63-2.35-22.7,3.9-34.74,10.58-113.08,48.62-225.69,100.47-327.39,170.55-.51-5.67-.92-10.95-1.48-16.21"/>
    <path d="m547.09,647.26c-2.18,31.07-5.69,61.96-12.48,92.43-1.23,5.51-9.99,33.11-15.31,33.48-2.63.19-5.34.39-7.92.01-7.3-1.09-2.14-27.38-1.32-34.75,4.35-39.45,5.17-79.07,4.95-118.69-.38-68.92-.02-137.88-2.44-206.74-2.71-77-8.11-153.9-12.48-230.84-.57-9.99-2.63-19.72-7.07-28.91-3.76-7.8-1.87-12.12,6.31-15.08,8.21-2.98,16.51-4.29,24.21,1.66.26.2.57.35.88.47,18.16,7,25.68,21.14,26.55,39.67.49,10.47,1.21,20.95,1.23,31.42.11,68.09.06,136.18.06,204.27.12,4.34.25,154.49-5.16,231.59Z"/>
    <path d="m341.02,398.24c63.28,38.34,41.3,192.9,65.47,261.91,39.78-17.07,3.95,62.29-22.84-1.34-40.21,43.31-127.47,47.32-149.64-16.56-22.25-59.74,60.98-164.82,122.93-148.78-9.56-24.11,1-43.5-29.29-63.66-33.67-22.41-88.5,17.9-87.98,58.89-3.94,7.25-21.31,6.63-24,4.66-52.99-38.71,77.44-121.03,125.36-95.12Zm12.87,248.32c29.33-18.31,25.55-38.97,20.77-74.08-2.58-18.93-6.55-39.33-12.61-59.35-.29-.95-21.39.54-28.09,5.05-71.64,44.22-108.45,173.69,19.93,128.38Z"/>
    <path d="m652.68,527.1c2.11-52.08,26.16-116.05,86.9-114.47,96.09-38.18,115.9,67.79,77.25,134.46-47.38,92.06-171.81,112.04-164.15-19.99Zm58.6-82.99c-48.32,40.07-43.82,221.74,45.47,144.15,59.02-36.5,71.89-201.13-14.52-167.8,14.25,15.31-18.98,46.33-30.94,23.65Z"/>
    <path d="m692.05,705.94c11.21-9.8,13.92-14.9,21.33-15.07,11.37-.26-9.49,20.07-10.96,21.41-40.85,36.97-91.92,71.19-110.67,82.33-89,52.87-172.26,69.72-206.33,4.33-12.93-24.82,16.4-38.48,30.59-28.37,9.53,6.79,11.28,27.63,29.97,34.48,9.99,3.66,51.45,2.92,126.11-26.11,49.48-19.24,98.47-55.55,119.96-73Z"/>
    <path d="m726.66,230.6c25.52-16.1,45.44-33.29,66.56-56.77,14-15.56,68.67-101.33,55.09-71.75-16.6,36.18-39.38,75.24-56.87,95.08-8.66,9.83-25.38,27.69-35.56,36-60.94,48.42-71.34.17-49.52-13.82,9.51-6.1,16.96-.63,20.3,11.25Z"/>
  </g>
</svg>